<?xml version="1.0" encoding="UTF-8" standalone="no"?>
<svg width="48px" height="48px" viewBox="0 0 48 48" version="1.1" xmlns="http://www.w3.org/2000/svg" xmlns:xlink="http://www.w3.org/1999/xlink">
    <!-- Generator: Sketch 3.7.1 (28215) - http://www.bohemiancoding.com/sketch -->
    <title>icon--social--instagram</title>
    <desc>Created with Sketch.</desc>
    <defs></defs>
    <g id="Page-1" stroke="none" stroke-width="1" fill="none" fill-rule="evenodd">
        <g id="icon--social">
            <rect id="Rectangle-1" fill="#3F729B" x="0" y="0" width="48" height="48"></rect>
            <path d="M15.812686,13 L32.1008854,13 C33.647739,13 34.9133464,14.1452341 34.9133464,15.812461 L34.9133464,32.1011104 C34.9133464,33.7683373 33.647739,34.9135714 32.1008854,34.9135714 L15.812686,34.9135714 C14.2653825,34.9135714 13,33.7683373 13,32.1011104 L13,15.812461 C13,14.1452341 14.2653825,13 15.812686,13 L15.812686,13 L15.812686,13 Z M28.9630789,15.4346913 C28.4203864,15.4346913 27.9769175,15.8783851 27.9769175,16.4213026 L27.9769175,18.7826449 C27.9769175,19.3253374 28.4203864,19.7692562 28.9630789,19.7692562 L31.4398446,19.7692562 C31.982537,19.7692562 32.4264559,19.3253374 32.4264559,18.7826449 L32.4264559,16.4213026 C32.4264559,15.8783851 31.982537,15.4346913 31.4398446,15.4346913 L28.9630789,15.4346913 L28.9630789,15.4346913 L28.9630789,15.4346913 Z M32.4368057,22.2671716 L30.5081325,22.2671716 C30.6906049,22.8629634 30.7893786,23.4940796 30.7893786,24.1470206 C30.7893786,27.7919701 27.7393208,30.7466292 23.9775979,30.7466292 C20.2161,30.7466292 17.1664923,27.7919701 17.1664923,24.1470206 C17.1664923,23.4936296 17.2650409,22.8627384 17.4477384,22.2671716 L15.4351413,22.2671716 L15.4351413,31.5237684 C15.4351413,32.0027868 15.8270858,32.3949563 16.3063292,32.3949563 L31.5660678,32.3949563 C32.0453112,32.3949563 32.4372557,32.0030117 32.4372557,31.5237684 L32.4372557,22.2671716 L32.4368057,22.2671716 L32.4368057,22.2671716 Z M23.9773729,19.6448329 C21.5469566,19.6448329 19.5764339,21.5539315 19.5764339,23.9091989 C19.5764339,26.2644662 21.5469566,28.1735648 23.9773729,28.1735648 C26.4080143,28.1735648 28.378762,26.2644662 28.378762,23.9091989 C28.378762,21.5539315 26.4082393,19.6448329 23.9773729,19.6448329 L23.9773729,19.6448329 Z" id="Instagram" fill="#FFFFFF"></path>
        </g>
    </g>
</svg>