<?xml version="1.0" encoding="UTF-8" standalone="no"?>
<svg width="48px" height="48px" viewBox="0 0 48 48" version="1.1" xmlns="http://www.w3.org/2000/svg" xmlns:xlink="http://www.w3.org/1999/xlink">
    <!-- Generator: Sketch 3.6.1 (26313) - http://www.bohemiancoding.com/sketch -->
    <title>48</title>
    <desc>Created with Sketch.</desc>
    <defs></defs>
    <g id="Page-1" stroke="none" stroke-width="1" fill="none" fill-rule="evenodd">
        <g id="48">
            <rect id="Rectangle-1" fill="#E52D27" x="0" y="0" width="48" height="48"></rect>
            <path d="M34.0740796,19.3399212 C33.8185842,18.2300458 32.9107785,17.4112111 31.8179217,17.2890644 C29.2300076,17.000178 26.6106412,16.99867 24.0033387,17.000178 C21.3956054,16.99867 18.7758081,17.000178 16.187894,17.2890644 C15.0956835,17.4112111 14.188524,18.2300458 13.9330286,19.3399212 C13.5693893,20.9205028 13.5652962,22.6458507 13.5652962,24.2731797 C13.5652962,25.9005087 13.5652962,27.6256412 13.9289355,29.2060073 C14.1840001,30.3156673 15.091375,31.1345021 16.1842317,31.2568641 C18.7719305,31.545966 21.3915123,31.547474 23.9992456,31.545966 C26.6074098,31.547474 29.2263453,31.545966 31.8138286,31.2568641 C32.9060391,31.1347175 33.8140603,30.3158828 34.0695557,29.2060073 C34.4334104,27.6254258 34.434703,25.9002933 34.434703,24.2731797 C34.434703,22.6458507 34.4377189,20.9205028 34.0740796,19.3399212 L34.0740796,19.3399212 Z M21.3068498,27.5123271 L21.3068498,20.61072 C23.5186299,21.7647578 25.715761,22.9110403 27.9415439,24.0721871 C25.7226547,25.2229935 23.5244464,26.3623824 21.3068498,27.5123271 L21.3068498,27.5123271 Z" id="Youtube" fill="#FFFFFF"></path>
        </g>
    </g>
</svg>