<?xml version="1.0" encoding="UTF-8" standalone="no"?>
<svg width="48px" height="48px" viewBox="0 0 48 48" version="1.1" xmlns="http://www.w3.org/2000/svg" xmlns:xlink="http://www.w3.org/1999/xlink">
    <!-- Generator: Sketch 3.7.1 (28215) - http://www.bohemiancoding.com/sketch -->
    <title>icon--social--snapchat</title>
    <desc>Created with Sketch.</desc>
    <defs>
        <polygon id="path-1" points="12.7499932 24.48 0 24.48 0 0.0460715044 12.7499932 0.0460715044 25.4999865 0.0460715044 25.4999865 24.48"></polygon>
    </defs>
    <g id="Page-1" stroke="none" stroke-width="1" fill="none" fill-rule="evenodd">
        <g id="icon--social">
            <rect id="Rectangle-1" fill="#FFFC00" x="0" y="0" width="48" height="48"></rect>
            <g id="snap-ghost" transform="translate(11.000000, 12.000000)">
                <mask id="mask-2" fill="white">
                    <use xlink:href="#path-1"></use>
                </mask>
                <g id="Clip-2"></g>
                <path d="M12.9077458,24.2105034 C12.8433583,24.2105034 12.780175,24.2086258 12.7169208,24.2055207 L12.7167792,24.2055207 C12.676475,24.2086981 12.6343292,24.2105034 12.5921833,24.2105034 C11.1128292,24.2105034 10.1633083,23.5262188 9.24516667,22.8643922 C8.6111375,22.4077211 8.01287917,21.9765409 7.30794583,21.856885 C6.96397917,21.7988262 6.62164167,21.7693635 6.29077917,21.7693635 C5.69471667,21.7693635 5.22445417,21.8631674 4.881125,21.9316248 C4.67252083,21.9732191 4.49253333,22.0089642 4.35575417,22.0089642 C4.21288333,22.0089642 4.05804167,21.9774796 3.99075,21.7430782 C3.93224167,21.540017 3.88995417,21.3433104 3.84929583,21.1530308 C3.74439167,20.6633586 3.66994583,20.3621607 3.4686375,20.3306761 C1.12235417,19.9612375 0.450783333,19.4574117 0.301041667,19.0999604 C0.2798625,19.048834 0.267820833,18.9976354 0.264916667,18.9469423 C0.2573375,18.8095943 0.35275,18.6883497 0.485845833,18.6661805 C4.09267917,18.0606796 5.71015833,14.3024581 5.77730833,14.1428687 C5.77915,14.1384637 5.7810625,14.1342032 5.78304583,14.1297982 C6.00383333,13.6737048 6.04704167,13.2778365 5.9119625,12.953314 C5.66447083,12.358645 4.85718333,12.0972361 4.32281667,11.9244319 C4.19205833,11.8822598 4.0681,11.8423986 3.97035,11.8030428 C2.904025,11.3732347 2.81527083,10.9321614 2.85720417,10.707292 C2.928675,10.3242053 3.4308125,10.0572361 3.83697083,10.0572361 C3.94832083,10.0572361 4.04635417,10.0773834 4.12880417,10.1165947 C4.6084875,10.3457246 5.04085417,10.4617699 5.4138625,10.4617699 C5.92924583,10.4617699 6.1542125,10.2409444 6.18169583,10.2119873 C6.16859167,9.96314336 6.15237083,9.70325097 6.13579583,9.43505416 C6.02834167,7.6966131 5.89524583,5.53645168 6.4347125,4.30342513 C8.051625,0.607378407 11.480525,0.320261947 12.492875,0.320261947 C12.5188,0.320261947 12.9367167,0.315712566 12.9367167,0.315712566 L12.9966417,0.315495929 C14.0113292,0.315495929 17.4476667,0.603117876 19.0655,4.30118655 C19.6051083,5.53486301 19.4716583,7.69682973 19.3640625,9.43397097 L19.3596,9.50950513 C19.344725,9.75141664 19.330275,9.98654018 19.3182333,10.2116262 C19.3440167,10.238417 19.5509208,10.4415504 20.0182083,10.459748 L20.0187042,10.459748 C20.3737917,10.4458832 20.7819333,10.3304878 21.2298125,10.1165947 C21.3610667,10.054131 21.5068417,10.0409883 21.6060792,10.0409883 C21.7576625,10.0409883 21.9113,10.0708842 22.0388708,10.1251158 L22.0465917,10.1283653 C22.4089042,10.2592142 22.6461958,10.5180956 22.6512958,10.7886032 C22.6559708,11.0432963 22.4652875,11.4262386 21.52965,11.8030428 C21.4326792,11.8418931 21.3087208,11.8820432 21.1774667,11.9244319 C20.6425333,12.097525 19.8354583,12.358645 19.5881083,12.9532418 C19.4529583,13.2775476 19.4962375,13.6731993 19.7168833,14.1295094 C19.7188667,14.1339143 19.7211333,14.1381749 19.7228333,14.1428687 C19.7899125,14.3023136 21.405975,18.059452 25.0143667,18.665675 C25.1476042,18.6880609 25.2427333,18.8091611 25.2354375,18.9466535 C25.2323917,18.9981409 25.2201375,19.0500616 25.1985333,19.1004658 C25.0497125,19.4553897 24.3787083,19.9585657 22.031575,20.3282931 C21.8398292,20.3583335 21.765525,20.6130265 21.6510583,21.1471816 C21.6094792,21.3415773 21.5673333,21.5325069 21.5093208,21.7333296 C21.4593833,21.9075781 21.35285,21.9891058 21.1736417,21.9891058 L21.1444583,21.9891058 C21.020075,21.9891058 20.843275,21.9664312 20.6192292,21.9215873 C20.2218542,21.8423703 19.7763125,21.7693635 19.2095042,21.7693635 C18.8785,21.7693635 18.53595,21.7988262 18.1917708,21.856885 C17.4876167,21.9765409 16.8897125,22.4068545 16.2568875,22.862948 C15.3369042,23.5262188 14.387525,24.2105034 12.9077458,24.2105034" id="Fill-1" fill="#FFFFFF" mask="url(#mask-2)"></path>
                <path d="M12.9966417,0.0460715044 L12.9955792,0.0460715044 C12.9736208,0.0460715044 12.9529375,0.0460715044 12.9333167,0.0465047788 C12.9333167,0.0465047788 12.5245375,0.050620885 12.4920958,0.050620885 C11.44015,0.050620885 7.87510833,0.34936354 6.1931,4.19380673 C5.627425,5.48713062 5.763,7.68375929 5.8718,9.44891894 C5.88462083,9.65703504 5.89822083,9.87309451 5.90990833,10.0819327 C5.82285417,10.1310372 5.663975,10.1921288 5.4138625,10.1921288 C5.07995417,10.1921288 4.68534167,10.084749 4.24114583,9.8724446 C4.12320833,9.81611894 3.98720833,9.78795611 3.83697083,9.78795611 C3.3167,9.78795611 2.69435833,10.1368864 2.59752917,10.6570322 C2.52761667,11.0315257 2.69202083,11.5779568 3.87309583,12.0534754 C3.97962917,12.0964418 4.10776667,12.1378195 4.24312917,12.1814358 C4.73102917,12.3394365 5.46854583,12.5780262 5.66865,13.0585996 C5.77235,13.307588 5.73098333,13.6280665 5.5460375,14.0107922 C5.542,14.0194577 5.53789167,14.0279788 5.53420833,14.0369331 C5.469325,14.1908899 3.90844167,17.8184793 0.442920833,18.4000779 C0.176445833,18.4449218 -0.0139541667,18.6872665 0.000779166667,18.9621069 C0.00538333333,19.0439235 0.0243666667,19.1253069 0.0572333333,19.2043073 C0.3172625,19.8241784 1.4146125,20.2783943 3.41225417,20.594468 C3.47897917,20.6865388 3.54839583,21.0117112 3.59089583,21.2098619 C3.6326875,21.4053409 3.67575417,21.6069579 3.73709583,21.8196234 C3.79730417,22.0287504 3.95370417,22.2786775 4.35575417,22.2786775 C4.518175,22.2786775 4.70985,22.2404772 4.93162917,22.1960665 C5.264475,22.1297756 5.72021667,22.0390046 6.29077917,22.0390046 C6.60712083,22.0390046 6.93507917,22.067023 7.26530417,22.1228432 C7.9098875,22.2323894 8.45764167,22.6270301 9.09174167,23.0840623 C10.0001083,23.738812 11.0286792,24.48 12.5921833,24.48 C12.6351083,24.48 12.6783167,24.4787002 12.7210292,24.4754506 C12.7717458,24.4776892 12.8376208,24.48 12.9077458,24.48 C14.471675,24.48 15.500175,23.7386676 16.4078333,23.0842789 C17.04335,22.626669 17.59075,22.2321005 18.2353333,22.1228432 C18.5649917,22.067023 18.8930208,22.0390046 19.2095042,22.0390046 C19.7537875,22.0390046 20.1844542,22.1096283 20.5685833,22.1861012 C20.809275,22.2341225 21.0029333,22.2585303 21.1444583,22.2585303 L21.1592625,22.2587469 L21.1736417,22.2587469 C21.470575,22.2587469 21.6801708,22.0987965 21.7632583,21.8084304 C21.8234667,21.6001699 21.866675,21.4037522 21.9093167,21.2049515 C21.9516042,21.0073062 22.0208083,20.6836503 22.0873208,20.592085 C24.0855292,20.2758669 25.1825958,19.8223731 25.4421292,19.2051016 C25.4754917,19.1261012 25.4946167,19.044068 25.49915,18.9616014 C25.5142375,18.6866166 25.323625,18.4445607 25.0572917,18.3998612 C21.5902125,17.8172517 20.0306042,14.1905288 19.9658625,14.0366442 C19.9621792,14.0278343 19.9582833,14.0190244 19.9539625,14.0105034 C19.768875,13.6278499 19.7279333,13.307588 19.8314208,13.0585996 C20.0314542,12.5780262 20.7686875,12.3394365 21.2565875,12.1817246 C21.3930833,12.1375306 21.5213625,12.0959363 21.6269042,12.0534754 C22.4912125,11.7054839 22.9248542,11.278131 22.9157167,10.7831873 C22.9082083,10.3945402 22.6112042,10.0477763 22.1393125,9.8759108 L22.137825,9.8753331 C21.9790875,9.80824779 21.7906,9.77156389 21.6060792,9.77156389 C21.479925,9.77156389 21.2927125,9.78903929 21.1178958,9.8724446 C20.7067792,10.0688623 20.3373125,10.1755922 20.0187042,10.1901069 C19.8074792,10.1801416 19.6692833,10.1258379 19.5904458,10.0814995 C19.6004333,9.90248496 19.6116958,9.71805451 19.6235958,9.52539186 L19.6280583,9.45050761 C19.7373542,7.68419257 19.8730708,5.48561416 19.3068292,4.1913515 C17.6242542,0.345247434 14.0515625,0.0460715044 12.9966417,0.0460715044 L12.9966417,0.0460715044 Z M12.9966417,0.584992566 C13.9571417,0.585136991 17.2652,0.847845664 18.8241708,4.41094938 C19.3373583,5.58396743 19.2061042,7.70939469 19.1004917,9.41700106 C19.0837042,9.68772531 19.0674833,9.95021735 19.0542375,10.2012276 L19.0485,10.3088963 L19.1192625,10.389052 C19.1475958,10.4214754 19.4145667,10.7057034 20.0078667,10.7291724 L20.0177833,10.7294612 L20.0274875,10.7291724 C20.4197625,10.71408 20.8619042,10.5901635 21.3420833,10.3606726 C21.4124917,10.3268772 21.5066292,10.310485 21.6060792,10.310485 C21.7196958,10.310485 21.8401125,10.3322209 21.9395625,10.3748984 L21.9544375,10.3811087 C22.2060375,10.4708687 22.3840417,10.6405678 22.3870167,10.7938025 C22.3885042,10.8808906 22.3246125,11.1929926 21.4325375,11.552177 C21.3453417,11.5874166 21.23045,11.6245338 21.0974958,11.6673558 C20.5170167,11.855469 19.6399583,12.1389027 19.344725,12.8476673 C19.1783375,13.2476517 19.2236,13.7189819 19.4797333,14.2488042 C19.585275,14.4995257 21.241925,18.305263 24.9713,18.9317055 C24.9702375,18.9493253 24.9660583,18.9693281 24.956,18.9925083 C24.892675,19.144371 24.4908375,19.6683441 21.9912708,20.061685 C21.5999167,20.1232099 21.5040083,20.569988 21.3927292,21.0897727 C21.3530625,21.2756474 21.3118375,21.4631108 21.2557375,21.6574343 C21.2388083,21.716143 21.23555,21.7196092 21.1736417,21.7196092 L21.1444583,21.7196092 C21.0336042,21.7196092 20.8650208,21.696068 20.669875,21.6571455 C20.3155667,21.5865218 19.8297208,21.4999391 19.2095042,21.4999391 C18.8632708,21.4999391 18.5064125,21.5306294 18.1487042,21.5910712 C17.383775,21.720909 16.7614333,22.1696368 16.1023292,22.6442888 C15.2176917,23.2820687 14.3032333,23.9410789 12.9077458,23.9410789 C12.8471833,23.9410789 12.7874708,23.939057 12.7278292,23.9361685 L12.7121042,23.9353019 L12.6962375,23.9368184 C12.6619542,23.9397069 12.6275292,23.9410789 12.5921833,23.9410789 C11.1969792,23.9410789 10.2821667,23.2820687 9.3976,22.6445055 C8.73877917,22.1696368 8.11629583,21.720909 7.35150833,21.5910712 C6.99372917,21.5306294 6.63694167,21.4999391 6.29077917,21.4999391 C5.67063333,21.4999391 5.1847875,21.5962704 4.83019583,21.6670386 C4.63519167,21.7061055 4.46639583,21.7394676 4.35575417,21.7394676 C4.26537083,21.7394676 4.26352917,21.7341239 4.24440417,21.6675441 C4.188375,21.4731483 4.14729167,21.2806301 4.10748333,21.094972 C3.99613333,20.575115 3.8998,20.1257373 3.50894167,20.0642846 C1.00909167,19.6707271 0.607608333,19.1454542 0.544070833,18.9940248 C0.5340125,18.9704835 0.529833333,18.9499752 0.5289125,18.9320665 C4.25800417,18.3057685 5.914725,14.5004644 6.02019583,14.2490931 C6.27632917,13.7189819 6.321875,13.2479405 6.15541667,12.8481727 C5.86039583,12.1391915 4.98326667,11.855469 4.40264583,11.6673558 C4.26969167,11.624606 4.15472917,11.5874166 4.06760417,11.552177 C3.31379583,11.2487405 3.0823125,10.9430655 3.11695,10.7577685 C3.1569,10.544092 3.5200625,10.3268772 3.83697083,10.3268772 C3.9083,10.3268772 3.9705625,10.3385034 4.01681667,10.3606726 C4.53170417,10.6063391 5.00196667,10.7313388 5.4138625,10.7313388 C6.06205833,10.7313388 6.35070417,10.4237862 6.38130417,10.3889076 L6.45157083,10.3088963 L6.44583333,10.2015887 C6.43265833,9.95101168 6.41650833,9.68866407 6.39965,9.41808425 C6.29417917,7.71047788 6.16299583,5.58649487 6.67618333,4.41326018 C8.22913333,0.863226903 11.5209708,0.589686372 12.492875,0.589686372 C12.5168167,0.589686372 12.9391958,0.585425841 12.9391958,0.585425841 C12.9574,0.585136991 12.9763125,0.584992566 12.9966417,0.584992566 L12.9966417,0.584992566 Z" id="Fill-3" fill="#0B0C09" mask="url(#mask-2)"></path>
            </g>
        </g>
    </g>
</svg>