<?xml version="1.0" encoding="UTF-8" standalone="no"?>
<svg width="48px" height="48px" viewBox="0 0 48 48" version="1.1" xmlns="http://www.w3.org/2000/svg" xmlns:xlink="http://www.w3.org/1999/xlink">
    <!-- Generator: Sketch 3.6.1 (26313) - http://www.bohemiancoding.com/sketch -->
    <title>icon--social--twitter</title>
    <desc>Created with Sketch.</desc>
    <defs></defs>
    <g id="Page-1" stroke="none" stroke-width="1" fill="none" fill-rule="evenodd">
        <g id="icon--social">
            <rect id="Rectangle-1" fill="#55ACEE" x="0" y="0" width="48" height="48"></rect>
            <path d="M37,15.4987655 C36.043054,15.9227956 35.0162647,16.210368 33.9374329,16.3387538 C35.0389935,15.679109 35.8822106,14.6328197 36.281855,13.3899157 C35.2485658,14.0007892 34.1080051,14.4443618 32.8927155,14.6848197 C31.9195407,13.6466448 30.5352934,13 28.9999314,13 C26.0543645,13 23.6660566,15.3883078 23.6660566,18.3322603 C23.6660566,18.7497904 23.7131711,19.1575918 23.8041712,19.5475499 C19.3720137,19.3249352 15.4418863,17.2014709 12.8115062,13.9747892 C12.3517048,14.761163 12.0901325,15.6774521 12.0901325,16.655555 C12.0901325,18.5061038 13.0324641,20.1389234 14.4622115,21.0942126 C13.5881088,21.0649838 12.7660062,20.8245259 12.0462893,20.4248389 L12.0462893,20.4914534 C12.0462893,23.0747191 13.8854524,25.2306834 16.3241035,25.7213705 C15.8773021,25.8415994 15.4061575,25.9082139 14.9187417,25.9082139 C14.5743261,25.9082139 14.2412537,25.8740995 13.9146812,25.8090994 C14.5937836,27.9293349 16.562947,29.4711544 18.896026,29.5134257 C17.0714772,30.9431731 14.7708983,31.7928902 12.2721328,31.7928902 C11.8416027,31.7928902 11.4175301,31.7668901 11,31.7197757 C13.3606934,33.2356376 16.1633026,34.1194691 19.1754839,34.1194691 C28.9870163,34.1194691 34.3501623,25.992714 34.3501623,18.9447908 L34.3322767,18.2543027 C35.3801804,17.5068864 36.2867407,16.5678261 37,15.4987655 L37,15.4987655 Z" id="Twitter" fill="#FFFFFF"></path>
        </g>
    </g>
</svg>