<?xml version="1.0" encoding="UTF-8" standalone="no"?>
<svg width="48px" height="48px" viewBox="0 0 48 48" version="1.1" xmlns="http://www.w3.org/2000/svg" xmlns:xlink="http://www.w3.org/1999/xlink">
    <!-- Generator: Sketch 3.6.1 (26313) - http://www.bohemiancoding.com/sketch -->
    <title>icon--social--google</title>
    <desc>Created with Sketch.</desc>
    <defs></defs>
    <g id="Page-1" stroke="none" stroke-width="1" fill="none" fill-rule="evenodd">
        <g id="icon--social">
            <rect id="Rectangle-1" fill="#D34836" x="0" y="0" width="48" height="48"></rect>
            <g id="Google+" transform="translate(11.000000, 15.000000)" fill="#FFFFFF">
                <path d="M18.9978165,8.44228307 L10.132199,8.44228307 L10.132199,11.3937169 L15.541115,11.3937169 C14.7342393,13.9596217 12.3344483,15.8208677 9.49885792,15.8208677 C6.00138986,15.8208677 3.16630275,12.9892143 3.16630275,9.49638095 C3.16630275,6.00339683 6.00149051,3.17194444 9.49885792,3.17194444 C11.2600736,3.17194444 12.8530391,3.8901746 14.0008943,5.04912434 L16.1460201,2.72046825 C14.4328184,1.04389418 12.0869803,0.00975132275 9.49885792,0.00975132275 C4.25280681,0.0097010582 0,4.25705556 0,9.49638095 C0,14.7357063 4.25280681,18.9831614 9.49890825,18.9831614 C14.0943051,18.9831614 18.1176616,15.7238069 18.9978668,11.3937672 L18.9978668,8.44233333 L18.9978165,8.44228307 L18.9978165,8.44228307 L18.9978165,8.44228307 Z" id="Shape"></path>
                <path d="M25.9928533,8.43725661 L24.1794464,8.43725661 L24.1794464,6.6261746 L22.6249826,6.6261746 L22.6249826,8.43725661 L20.8115757,8.43725661 L20.8115757,9.98957672 L22.6249826,9.98957672 L22.6249826,11.800709 L24.1794464,11.800709 L24.1794464,9.98957672 L25.9928533,9.98957672 L25.9928533,8.43725661 Z" id="Shape"></path>
            </g>
        </g>
    </g>
</svg>