<?xml version="1.0" encoding="UTF-8" standalone="no"?>
<svg width="48px" height="48px" viewBox="0 0 48 48" version="1.1" xmlns="http://www.w3.org/2000/svg" xmlns:xlink="http://www.w3.org/1999/xlink">
    <!-- Generator: Sketch 3.7.1 (28215) - http://www.bohemiancoding.com/sketch -->
    <title>icon--social--pinterest</title>
    <desc>Created with Sketch.</desc>
    <defs></defs>
    <g id="Page-1" stroke="none" stroke-width="1" fill="none" fill-rule="evenodd">
        <g id="icon--social">
            <rect id="Rectangle-1" fill="#BD081C" x="0" y="0" width="48" height="48"></rect>
            <path d="M24.6054434,11 C17.5548972,11 14,16.0546195 14,20.2699765 C14,22.8221493 14.9662232,25.0923638 17.0383262,25.938768 C17.3784749,26.0776311 17.6831804,25.9437935 17.7821038,25.5676727 C17.8503452,25.3071389 18.0124845,24.6503822 18.0846933,24.3766234 C18.1841458,24.0044701 18.1452641,23.8740709 17.8712408,23.5497924 C17.2737324,22.8448964 16.8917925,21.932367 16.8917925,20.6397493 C16.8917925,16.8896501 19.6976221,13.5325998 24.198376,13.5325998 C28.1828233,13.5325998 30.3723649,15.9675986 30.3723649,19.2193774 C30.3723649,23.4979501 28.4788002,27.1089216 25.6679451,27.1089216 C24.1153226,27.1089216 22.9536329,25.8250324 23.3260507,24.2504563 C23.7719999,22.3706456 24.6355966,20.3416563 24.6355966,18.9850292 C24.6355966,17.7704393 23.9841299,16.7571349 22.6346444,16.7571349 C21.0476367,16.7571349 19.773005,18.3988944 19.773005,20.5979581 C19.773005,21.9987568 20.2461978,22.9462004 20.2461978,22.9462004 C20.2461978,22.9462004 18.6218954,29.8272013 18.337821,31.0322692 C17.7704658,33.4318248 18.2526516,36.3738726 18.2933848,36.6709075 C18.3169254,36.8470654 18.543074,36.8888566 18.6457005,36.7560769 C18.7924987,36.5648425 20.6823604,34.2316767 21.324834,31.9000979 C21.5065464,31.2399027 22.3680271,27.8214881 22.3680271,27.8214881 C22.8838046,28.8046394 24.3906684,29.6708811 25.9932817,29.6708811 C30.7632978,29.6708811 34,25.3222155 34,19.5008067 C34.0002645,15.0992409 30.2715899,11 24.6054434,11 L24.6054434,11 Z" id="Shape" fill="#FFFFFF"></path>
        </g>
    </g>
</svg>