<?xml version="1.0" encoding="UTF-8" standalone="no"?>
<svg width="102px" height="62px" viewBox="0 0 102 62" version="1.1" xmlns="http://www.w3.org/2000/svg" xmlns:xlink="http://www.w3.org/1999/xlink">
    <!-- Generator: Sketch 3.7.2 (28276) - http://www.bohemiancoding.com/sketch -->
    <title>bacs</title>
    <desc>Created with Sketch.</desc>
    <defs>
        <rect id="path-1" x="0" y="0" width="100" height="60" rx="4"></rect>
    </defs>
    <g id="Payment-badge-set" stroke="none" stroke-width="1" fill="none" fill-rule="evenodd">
        <g id="bacs">
            <g id="Bacs-dark" transform="translate(1.000000, 1.000000)">
                <mask id="mask-2" fill="white">
                    <use xlink:href="#path-1"></use>
                </mask>
                <use id="Mask" fill="#EC1642" xlink:href="#path-1"></use>
                <g id="BACS_logo" mask="url(#mask-2)" fill="#FFFFFF">
                    <g transform="translate(15.000000, 19.000000)" id="Shape">
                        <path d="M26.0022521,15.8304832 C25.8845339,16.3005061 25.797456,16.8878316 25.8272886,17.6225997 C25.8272886,18.9723848 26.5835871,19.7372929 28.0953799,19.7372929 C31.7293218,19.7372929 33.9377479,15.3612765 33.9377479,12.2177426 C33.9377479,10.4565823 33.1814494,8.81109581 31.2632886,8.81109581 C29.1701608,8.81109581 27.0189834,10.9844439 26.3215422,14.3332519 L26.0022521,15.8304832 L26.0022521,15.8304832 Z M29.0532503,0.471247097 L27.1947547,9.69249032 L27.2511922,9.69249032 C28.5025557,7.78388742 30.3038025,6.78519032 32.1937463,6.78519032 C35.2745772,6.78519032 36.4364394,9.36991 36.4364394,11.8951623 C36.4364394,16.2418548 33.3265803,21.6458958 27.6873963,21.6458958 C25.2169253,21.6458958 23.3576254,20.6170587 23.3576254,17.9745039 C23.3576254,17.2992032 23.4721159,16.4479487 23.5874178,15.7718319 L26.6416402,0.471247097 L29.0532503,0.471247097 L29.0532503,0.471247097 Z"></path>
                        <path d="M47.9775793,8.92904774 C47.6284566,8.84107258 47.1059824,8.72377 46.290823,8.72377 C42.6584898,8.72377 39.692153,12.5711123 39.6623204,16.5064332 C39.6623204,18.0924558 40.2146271,19.649151 42.0763504,19.649151 C44.0832047,19.649151 46.4657865,17.0049674 47.1632277,13.217089 L47.9775793,8.92904774 L47.9775793,8.92904774 Z M46.4077335,21.32152 C46.4077335,20.4702655 46.5528679,19.1196642 46.7278314,17.6517603 L46.6697783,17.6517603 C45.1297651,20.5875681 43.2108,21.645729 41.20475,21.645729 C38.7326704,21.645729 37.1628246,19.649151 37.1628246,16.9471323 C37.1628246,12.0122981 40.7685495,6.78584323 46.9019906,6.78584323 C48.2396242,6.78584323 49.7215809,7.02044484 50.6810669,7.34302516 L49.2579676,14.7444603 C48.7919309,17.2110613 48.5879391,19.7371297 48.6459922,21.32152 L46.4077335,21.32152 L46.4077335,21.32152 Z"></path>
                        <path d="M60.5309374,20.7641748 C59.8052757,21.1177113 58.3515395,21.6455694 56.4624035,21.6455694 C52.826846,21.6455694 51.0554283,19.149641 51.0554283,16.1250419 C51.0554283,11.2781865 54.601488,6.81419129 59.6601448,6.81419129 C60.9671415,6.81419129 62.1596406,7.19705161 62.5958447,7.43165677 L61.8975957,9.36958355 C61.345289,9.10483839 60.5599621,8.84090935 59.5134018,8.84090935 C55.8504281,8.84090935 53.5549241,12.4821613 53.5549241,15.8301568 C53.5549241,18.12162 54.7458146,19.6196639 57.0413186,19.6196639 C58.4676421,19.6196639 59.5730669,19.1789684 60.3003372,18.8262481 L60.5309374,20.7641748 L60.5309374,20.7641748 Z"></path>
                        <path d="M62.7151715,18.8557352 C63.3835844,19.2671068 64.6051118,19.7371297 65.7387571,19.7371297 C67.3658482,19.7371297 68.4116043,18.6789687 68.4116043,17.4163426 C68.4116043,16.3003429 67.9173471,15.6242261 66.4636109,14.8031116 C64.8365163,13.8923932 63.9366989,12.628951 63.9366989,11.190371 C63.9366989,8.69363 66.0580472,6.78584323 69.0227719,6.78584323 C70.3015446,6.78584323 71.4351863,7.13774742 71.9584683,7.48965516 L71.2908632,9.33960677 C70.794994,9.04635032 69.8951766,8.69363 68.8478049,8.69363 C67.3956808,8.69363 66.3491169,9.60435194 66.3491169,10.8376506 C66.3491169,11.8656716 67.0183376,12.5116484 68.2680855,13.217089 C69.8363157,14.127811 70.9119044,15.3611132 70.9119044,16.9455035 C70.9119044,19.9424074 68.5002942,21.6457326 65.5339575,21.6457326 C64.0237803,21.6164229 62.6861467,21.1471984 62.0467586,20.6462194 L62.7151715,18.8557352 L62.7151715,18.8557352 Z"></path>
                        <path d="M18.8315192,7.30221516 C18.6484917,3.80270355 14.7871739,1.04691968 9.64949971,0.355328387 L9.07864859,0.355328387 C14.1082771,1.31410968 17.7849553,4.36151774 17.7849553,7.97507452 C17.7849553,10.7137516 15.6724788,13.1298448 12.4594174,14.5570203 C16.3884644,13.0581603 18.9887461,10.3080787 18.8315192,7.30221516 L18.8315192,7.30221516 Z M19.8893713,8.23493 C20.1481885,13.2113052 14.2453475,17.571031 6.70493151,17.9734429 C4.62228761,18.0842271 2.63397776,17.8813942 0.840791415,17.4260332 L0.04176,21.6415774 L12.1046505,21.6415774 C16.8899742,21.6090032 19.8651828,17.6728555 20.6416379,13.8238845 L23.1854786,0.355328387 L11.0153538,0.355328387 C16.0385339,1.44281323 19.6910236,4.47719161 19.8893713,8.23493 Z M8.48924956,15.5557174 C13.1721752,14.5570203 16.5763282,11.5421971 16.5763282,7.97507452 C16.5763282,4.3590729 13.0810654,1.31247742 8.29896585,0.355328387 L7.13387941,0.355328387 C11.9450037,1.12756387 15.5442802,4.25317484 15.5442802,7.99381 C15.5442802,11.9079506 11.6023329,15.1516768 6.45659473,15.7284139 C6.58721327,15.7252203 6.71702751,15.7218848 6.84845034,15.7145752 C7.40640468,15.6844494 7.95387512,15.63067 8.48924956,15.5557281 L8.48924956,15.5557174 Z M3.66199727,14.8339861 C2.87022205,14.8339861 2.10585951,14.7639303 1.37052527,14.6311497 L3.98531941,0.844086774 C9.12540995,0.968720323 13.2415165,4.05115452 13.2415165,7.83659161 C13.2415165,11.7010406 8.95205854,14.8339861 3.66199727,14.8339861 L3.66199727,14.8339861 Z"></path>
                    </g>
                </g>
            </g>
        </g>
    </g>
</svg>