<?xml version="1.0" encoding="UTF-8" standalone="no"?>
<svg width="102px" height="62px" viewBox="0 0 102 62" version="1.1" xmlns="http://www.w3.org/2000/svg" xmlns:xlink="http://www.w3.org/1999/xlink">
    <!-- Generator: Sketch 3.7.2 (28276) - http://www.bohemiancoding.com/sketch -->
    <title>cash</title>
    <desc>Created with Sketch.</desc>
    <defs>
        <rect id="path-1" x="0" y="0" width="100" height="60" rx="4"></rect>
    </defs>
    <g id="Payment-badge-set" stroke="none" stroke-width="1" fill="none" fill-rule="evenodd">
        <g id="cash">
            <g id="Cash-dark" transform="translate(1.000000, 1.000000)">
                <g id="Oval-4">
                    <mask id="mask-2" fill="white">
                        <use xlink:href="#path-1"></use>
                    </mask>
                    <use id="Mask" fill="#1B4C17" xlink:href="#path-1"></use>
                    <circle stroke="#1C4C17" fill-opacity="0.100000001" fill="#000000" mask="url(#mask-2)" cx="101" cy="-1" r="17"></circle>
                    <circle stroke="#1C4C17" fill-opacity="0.100000001" fill="#000000" mask="url(#mask-2)" cx="101" cy="59" r="17"></circle>
                    <circle stroke="#1C4C17" fill-opacity="0.100000001" fill="#000000" mask="url(#mask-2)" cx="0" cy="59" r="17"></circle>
                    <circle stroke="#1C4C17" fill-opacity="0.100000001" fill="#000000" mask="url(#mask-2)" cx="0" cy="-1" r="17"></circle>
                </g>
                <path d="M31.808,33.232 C33.0346728,33.232 34.0373294,32.7466715 34.816,31.776 L36.416,33.424 C35.1466603,34.8533405 33.6506753,35.568 31.928,35.568 C30.2053247,35.568 28.7866722,35.0240054 27.672,33.936 C26.5573278,32.8479946 26,31.474675 26,29.816 C26,28.157325 26.5679943,26.7733389 27.704,25.664 C28.8400057,24.5546611 30.2293251,24 31.872,24 C33.7066758,24 35.2426605,24.6986597 36.48,26.096 L34.928,27.856 C34.1386627,26.8746618 33.1573392,26.384 31.984,26.384 C31.0453286,26.384 30.24267,26.6906636 29.576,27.304 C28.90933,27.9173364 28.576,28.7439948 28.576,29.784 C28.576,30.8240052 28.8906635,31.6586635 29.52,32.288 C30.1493365,32.9173365 30.9119955,33.232 31.808,33.232 L31.808,33.232 Z M47.1310609,35.44 L46.0910609,33.024 L41.4030609,33.024 L40.3630609,35.44 L37.7070609,35.44 L42.5390609,24.256 L44.9550609,24.256 L49.7870609,35.44 L47.1310609,35.44 Z M43.7550609,27.584 L42.3470609,30.832 L45.1470609,30.832 L43.7550609,27.584 Z M54.4781219,26.488 C54.2381207,26.6853343 54.1181219,26.946665 54.1181219,27.272 C54.1181219,27.597335 54.2647871,27.855999 54.5581219,28.048 C54.8514567,28.240001 55.5287832,28.4666654 56.5901219,28.728 C57.6514605,28.9893346 58.4754523,29.3813307 59.0621219,29.904 C59.6487915,30.4266693 59.9421219,31.1893283 59.9421219,32.192 C59.9421219,33.1946717 59.5661256,34.0079969 58.8141219,34.632 C58.0621181,35.2560031 57.0727947,35.568 55.8461219,35.568 C54.0754464,35.568 52.4807956,34.9120066 51.0621219,33.6 L52.5501219,31.776 C53.7554612,32.8320053 54.8701168,33.36 55.8941219,33.36 C56.3527908,33.36 56.7127872,33.2613343 56.9741219,33.064 C57.2354565,32.8666657 57.3661219,32.6000017 57.3661219,32.264 C57.3661219,31.9279983 57.2274566,31.6613343 56.9501219,31.464 C56.6727872,31.2666657 56.1234593,31.0666677 55.3021219,30.864 C54.000782,30.5546651 53.0487916,30.1520025 52.4461219,29.656 C51.8434522,29.1599975 51.5421219,28.3813386 51.5421219,27.32 C51.5421219,26.2586614 51.9234514,25.4400029 52.6861219,24.864 C53.4487924,24.2879971 54.4007828,24 55.5421219,24 C56.2887923,24 57.0354515,24.1279987 57.7821219,24.384 C58.5287923,24.6400013 59.1794524,25.0026643 59.7341219,25.472 L58.4701219,27.296 C57.4994504,26.5599963 56.4967937,26.192 55.4621219,26.192 C55.0461198,26.192 54.7181231,26.2906657 54.4781219,26.488 L54.4781219,26.488 Z M69.8731828,24.256 L72.3691828,24.256 L72.3691828,35.44 L69.8731828,35.44 L69.8731828,31.04 L65.4251828,31.04 L65.4251828,35.44 L62.9291828,35.44 L62.9291828,24.256 L65.4251828,24.256 L65.4251828,28.928 L69.8731828,28.928 L69.8731828,24.256 Z" id="CASH" fill="#FFFFFF"></path>
            </g>
        </g>
    </g>
</svg>