<?xml version="1.0" encoding="UTF-8" standalone="no"?>
<svg width="102px" height="62px" viewBox="0 0 102 62" version="1.1" xmlns="http://www.w3.org/2000/svg" xmlns:xlink="http://www.w3.org/1999/xlink">
    <!-- Generator: Sketch 3.7.2 (28276) - http://www.bohemiancoding.com/sketch -->
    <title>cheque</title>
    <desc>Created with Sketch.</desc>
    <defs>
        <rect id="path-1" x="0" y="0" width="100" height="60" rx="4"></rect>
    </defs>
    <g id="Payment-badge-set" stroke="none" stroke-width="1" fill="none" fill-rule="evenodd">
        <g id="cheque">
            <g id="Cheque-dark" transform="translate(1.000000, 1.000000)">
                <g id="Oval-4">
                    <mask id="mask-2" fill="white">
                        <use xlink:href="#path-1"></use>
                    </mask>
                    <use id="Mask" fill="#4C172B" xlink:href="#path-1"></use>
                    <circle stroke="#4C172B" fill-opacity="0.100000001" fill="#000000" mask="url(#mask-2)" cx="101" cy="-1" r="17"></circle>
                    <circle stroke="#4C172B" fill-opacity="0.100000001" fill="#000000" mask="url(#mask-2)" cx="101" cy="59" r="17"></circle>
                    <circle stroke="#4C172B" fill-opacity="0.100000001" fill="#000000" mask="url(#mask-2)" cx="0" cy="59" r="17"></circle>
                    <circle stroke="#4C172B" fill-opacity="0.100000001" fill="#000000" mask="url(#mask-2)" cx="0" cy="-1" r="17"></circle>
                </g>
                <path d="M18.808,32.232 C20.0346728,32.232 21.0373294,31.7466715 21.816,30.776 L23.416,32.424 C22.1466603,33.8533405 20.6506753,34.568 18.928,34.568 C17.2053247,34.568 15.7866722,34.0240054 14.672,32.936 C13.5573278,31.8479946 13,30.474675 13,28.816 C13,27.157325 13.5679943,25.7733389 14.704,24.664 C15.8400057,23.5546611 17.2293251,23 18.872,23 C20.7066758,23 22.2426605,23.6986597 23.48,25.096 L21.928,26.856 C21.1386627,25.8746618 20.1573392,25.384 18.984,25.384 C18.0453286,25.384 17.24267,25.6906636 16.576,26.304 C15.90933,26.9173364 15.576,27.7439948 15.576,28.784 C15.576,29.8240052 15.8906635,30.6586635 16.52,31.288 C17.1493365,31.9173365 17.9119955,32.232 18.808,32.232 L18.808,32.232 Z M33.1870609,23.256 L35.6830609,23.256 L35.6830609,34.44 L33.1870609,34.44 L33.1870609,30.04 L28.7390609,30.04 L28.7390609,34.44 L26.2430609,34.44 L26.2430609,23.256 L28.7390609,23.256 L28.7390609,27.928 L33.1870609,27.928 L33.1870609,23.256 Z M47.3581219,23.256 L47.3581219,25.48 L41.7901219,25.48 L41.7901219,27.784 L46.7981219,27.784 L46.7981219,29.912 L41.7901219,29.912 L41.7901219,32.232 L47.5341219,32.232 L47.5341219,34.44 L39.2941219,34.44 L39.2941219,23.256 L47.3581219,23.256 Z M61.7211828,28.776 C61.7211828,29.9386725 61.4251858,30.9839954 60.8331828,31.912 C60.2411799,32.8400046 59.4438545,33.533331 58.4411828,33.992 C58.5371833,34.1520008 58.6891818,34.2879994 58.8971828,34.4 C59.1051839,34.5120006 59.3211817,34.568 59.5451828,34.568 C59.7691839,34.568 59.9878484,34.5333337 60.2011828,34.464 C60.4145172,34.3946663 60.5851822,34.3120005 60.7131828,34.216 C60.9905175,33.9919989 61.1878489,33.7733344 61.3051828,33.56 L62.6011828,35.112 C61.6838449,36.0826715 60.5371897,36.568 59.1611828,36.568 C58.5211796,36.568 57.8918526,36.3920018 57.2731828,36.04 C56.6545131,35.6879982 56.1798511,35.1920032 55.8491828,34.552 C54.1958412,34.552 52.8038551,34.0000055 51.6731828,32.896 C50.5425105,31.7919945 49.9771828,30.4186749 49.9771828,28.776 C49.9771828,27.1333251 50.5425105,25.7600055 51.6731828,24.656 C52.8038551,23.5519945 54.1958412,23 55.8491828,23 C57.5025244,23 58.8945105,23.5519945 60.0251828,24.656 C61.1558551,25.7600055 61.7211828,27.1333251 61.7211828,28.776 L61.7211828,28.776 Z M58.2171828,26.232 C57.5771796,25.5279965 56.7905208,25.176 55.8571828,25.176 C54.9238448,25.176 54.137186,25.5279965 53.4971828,26.232 C52.8571796,26.9360035 52.5371828,27.7866617 52.5371828,28.784 C52.5371828,29.7813383 52.8571796,30.6293298 53.4971828,31.328 C54.137186,32.0266702 54.9238448,32.376 55.8571828,32.376 C56.7905208,32.376 57.5771796,32.0266702 58.2171828,31.328 C58.857186,30.6293298 59.1771828,29.7813383 59.1771828,28.784 C59.1771828,27.7866617 58.857186,26.9360035 58.2171828,26.232 L58.2171828,26.232 Z M69.3482438,32.328 C70.0522473,32.328 70.6095751,32.0693359 71.0202438,31.552 C71.4309125,31.0346641 71.6362438,30.3280045 71.6362438,29.432 L71.6362438,23.256 L74.1322438,23.256 L74.1322438,29.512 C74.1322438,31.1333414 73.6842483,32.3786623 72.7882438,33.248 C71.8922393,34.1173377 70.7455841,34.552 69.3482438,34.552 C67.9509035,34.552 66.8015816,34.114671 65.9002438,33.24 C64.9989059,32.365329 64.5482438,31.1226747 64.5482438,29.512 L64.5482438,23.256 L67.0442438,23.256 L67.0442438,29.432 C67.0442438,30.3280045 67.2522417,31.0346641 67.6682438,31.552 C68.0842459,32.0693359 68.6442403,32.328 69.3482438,32.328 L69.3482438,32.328 Z M85.6473047,23.256 L85.6473047,25.48 L80.0793047,25.48 L80.0793047,27.784 L85.0873047,27.784 L85.0873047,29.912 L80.0793047,29.912 L80.0793047,32.232 L85.8233047,32.232 L85.8233047,34.44 L77.5833047,34.44 L77.5833047,23.256 L85.6473047,23.256 Z" id="CHEQUE" fill="#FFFFFF"></path>
            </g>
        </g>
    </g>
</svg>