<?xml version="1.0" encoding="UTF-8" standalone="no"?>
<svg width="91px" height="21px" viewBox="0 0 91 21" version="1.1" xmlns="http://www.w3.org/2000/svg" xmlns:xlink="http://www.w3.org/1999/xlink">
    <!-- Generator: Sketch 3.7.2 (28276) - http://www.bohemiancoding.com/sketch -->
    <title>4stars--alternate</title>
    <desc>Created with Sketch.</desc>
    <defs></defs>
    <g id="Icons" stroke="none" stroke-width="1" fill="none" fill-rule="evenodd" fill-opacity="0.5">
        <g id="4stars" fill="#FFFFFF">
            <polygon id="Shape" points="67.8421053 7.91121053 59.9887977 7.23736017 56.9210526 0 53.8533504 7.23736017 46 7.91121053 51.9574556 13.0736135 50.1718421 20.75 56.9210526 16.6786316 63.6702632 20.75 61.8846925 13.0736135 67.8421053 7.91121053"></polygon>
            <polygon id="Shape" points="90.8421053 7.91121053 82.9887977 7.23736017 79.9210526 0 76.8533504 7.23736017 69 7.91121053 74.9574556 13.0736135 73.1718421 20.75 79.9210526 16.6786316 86.6702632 20.75 84.8846925 13.0736135 90.8421053 7.91121053"></polygon>
            <polygon id="Shape" points="21.8421053 7.91121053 13.9887977 7.23736017 10.9210526 0 7.85335036 7.23736017 0 7.91121053 5.95745562 13.0736135 4.17184211 20.75 10.9210526 16.6786316 17.6702632 20.75 15.8846925 13.0736135 21.8421053 7.91121053"></polygon>
            <polygon id="Shape" points="44.8421053 7.91121053 36.9887977 7.23736017 33.9210526 0 30.8533504 7.23736017 23 7.91121053 28.9574556 13.0736135 27.1718421 20.75 33.9210526 16.6786316 40.6702632 20.75 38.8846925 13.0736135 44.8421053 7.91121053"></polygon>
        </g>
    </g>
</svg>