<?xml version="1.0" encoding="UTF-8" standalone="no"?>
<svg width="116px" height="21px" viewBox="0 0 116 21" version="1.1" xmlns="http://www.w3.org/2000/svg" xmlns:xlink="http://www.w3.org/1999/xlink" xmlns:sketch="http://www.bohemiancoding.com/sketch/ns">
    <!-- Generator: Sketch 3.5.2 (25235) - http://www.bohemiancoding.com/sketch -->
    <title>76 - iPad (@1x)</title>
    <desc>Created with Sketch.</desc>
    <defs></defs>
    <g id="Page-1" stroke="none" stroke-width="1" fill="none" fill-rule="evenodd" sketch:type="MSPage">
        <g id="76---iPad-(@1x)" sketch:type="MSArtboardGroup" fill="#B8AA7B">
            <g id="Stars" sketch:type="MSLayerGroup" transform="translate(1.000000, 0.000000)">
                <path d="M67.8421053,7.91121053 L59.9887977,7.23736017 L56.9210526,0 L53.8533504,7.23736017 L46,7.91121053 L51.9574556,13.0736135 L50.1718421,20.75 L56.9210526,16.6786316 L63.6702632,20.75 L61.8846925,13.0736135 L67.8421053,7.91121053 L67.8421053,7.91121053 Z" id="Shape" sketch:type="MSShapeGroup"></path>
                <path d="M90.8421053,7.91121053 L82.9887977,7.23736017 L79.9210526,0 L76.8533504,7.23736017 L69,7.91121053 L74.9574556,13.0736135 L73.1718421,20.75 L79.9210526,16.6786316 L86.6702632,20.75 L84.8846925,13.0736135 L90.8421053,7.91121053 L90.8421053,7.91121053 Z" id="Shape" sketch:type="MSShapeGroup"></path>
                <path d="M21.8421053,7.91121053 L13.9887977,7.23736017 L10.9210526,0 L7.85335036,7.23736017 L0,7.91121053 L5.95745562,13.0736135 L4.17184211,20.75 L10.9210526,16.6786316 L17.6702632,20.75 L15.8846925,13.0736135 L21.8421053,7.91121053 L21.8421053,7.91121053 Z" id="Shape" sketch:type="MSShapeGroup"></path>
                <path d="M44.8421053,7.91121053 L36.9887977,7.23736017 L33.9210526,0 L30.8533504,7.23736017 L23,7.91121053 L28.9574556,13.0736135 L27.1718421,20.75 L33.9210526,16.6786316 L40.6702632,20.75 L38.8846925,13.0736135 L44.8421053,7.91121053 L44.8421053,7.91121053 Z" id="Shape" sketch:type="MSShapeGroup"></path>
                <path d="M113.842105,7.91121053 L105.988798,7.23736017 L102.921053,0 L99.8533504,7.23736017 L92,7.91121053 L97.9574556,13.0736135 L96.1718421,20.75 L102.921053,16.6786316 L109.670263,20.75 L107.884692,13.0736135 L113.842105,7.91121053 L113.842105,7.91121053 Z" id="Shape" sketch:type="MSShapeGroup"></path>
            </g>
        </g>
    </g>
</svg>