<?xml version="1.0" encoding="UTF-8" standalone="no"?>
<svg width="20px" height="16px" viewBox="0 0 20 16" version="1.1" xmlns="http://www.w3.org/2000/svg" xmlns:xlink="http://www.w3.org/1999/xlink">
    <!-- Generator: Sketch 3.7.2 (28276) - http://www.bohemiancoding.com/sketch -->
    <title>dropdown</title>
    <desc>Created with Sketch.</desc>
    <defs></defs>
    <g id="Icons" stroke="none" stroke-width="1" fill="none" fill-rule="evenodd">
        <g id="dropdown" fill="#FFFFFF">
            <path d="M14.5555508,7.08347422 L7.91652578,0.454328866 C7.67203092,0.196352021 7.36672444,0.0674170989 6.99999999,0.0674170989 C6.63327555,0.0674170989 6.32796906,0.196494688 6.08347421,0.454328866 L5.30957934,1.21816574 C5.05834349,1.46936592 4.93272557,1.77470807 4.93272557,2.13451319 C4.93272557,2.48750598 5.05830783,2.79648613 5.30957934,3.0611683 L10.2584334,8.00003567 L5.30936534,12.949068 C5.05820083,13.2002682 4.9325829,13.5056104 4.9325829,13.8654511 C4.9325829,14.2184083 5.05816516,14.5274954 5.30936534,14.7920706 L6.08333154,15.5558005 C6.33453173,15.8070006 6.64015921,15.9325829 6.99985733,15.9325829 C7.35969811,15.9325829 7.66525426,15.8070006 7.91638311,15.5558005 L14.5555508,8.92665511 C14.806858,8.6619016 14.9325829,8.35299279 14.9325829,8 C14.9326186,7.64019488 14.806858,7.3346744 14.5555508,7.08347422 L14.5555508,7.08347422 Z" id="Shape" transform="translate(9.932583, 8.000000) rotate(-270.000000) translate(-9.932583, -8.000000) "></path>
        </g>
    </g>
</svg>