<?xml version="1.0" encoding="UTF-8" standalone="no"?>
<svg width="22px" height="22px" viewBox="0 0 22 22" version="1.1" xmlns="http://www.w3.org/2000/svg" xmlns:xlink="http://www.w3.org/1999/xlink">
    <!-- Generator: Sketch 3.7.2 (28276) - http://www.bohemiancoding.com/sketch -->
    <title>info</title>
    <desc>Created with Sketch.</desc>
    <defs></defs>
    <g id="Icons" stroke="none" stroke-width="1" fill="none" fill-rule="evenodd" fill-opacity="0.600000024">
        <g id="info" fill="#2E7495">
            <path d="M10.9995767,1 C5.47746032,1 1,5.47746032 1,10.9995767 C1,16.5216931 5.47746032,21 10.9995767,21 C16.5216931,21 21,16.5216931 21,10.9995767 C21,5.47746032 16.5216931,1 10.9995767,1 L10.9995767,1 Z M13.0812698,16.4979894 C12.5665608,16.701164 12.1568254,16.8552381 11.8495238,16.9619048 C11.5430688,17.0685714 11.1866667,17.1219048 10.781164,17.1219048 C10.1580952,17.1219048 9.67301587,16.9695238 9.32761905,16.6656085 C8.98222222,16.3616931 8.81037037,15.9765079 8.81037037,15.5083598 C8.81037037,15.3263492 8.82306878,15.1401058 8.84846561,14.9504762 C8.87470899,14.7608466 8.91619048,14.5475132 8.97291005,14.3079365 L9.61714286,12.032381 C9.67386243,11.8139683 9.72296296,11.6065608 9.76190476,11.413545 C9.80084656,11.218836 9.8194709,11.0402116 9.8194709,10.877672 C9.8194709,10.5881481 9.75936508,10.3849735 9.64,10.2706878 C9.5189418,10.1564021 9.29121693,10.1005291 8.95174603,10.1005291 C8.78582011,10.1005291 8.61481481,10.1250794 8.43957672,10.1767196 C8.26603175,10.2300529 8.11534392,10.2783069 7.99174603,10.3257143 L8.16190476,9.6247619 C8.58349206,9.45291005 8.98730159,9.30560847 9.37248677,9.1837037 C9.75767196,9.06010582 10.1216931,8.99915344 10.4645503,8.99915344 C11.0833862,8.99915344 11.5608466,9.14984127 11.8969312,9.44783069 C12.2313228,9.74666667 12.3997884,10.1352381 12.3997884,10.6126984 C12.3997884,10.711746 12.3879365,10.8861376 12.3650794,11.1350265 C12.3422222,11.3847619 12.2990476,11.6124868 12.2364021,11.8215873 L11.5955556,14.0903704 C11.5430688,14.272381 11.4965079,14.4806349 11.4541799,14.7134392 C11.4126984,14.9462434 11.392381,15.1240212 11.392381,15.2433862 C11.392381,15.5447619 11.4592593,15.7504762 11.594709,15.8596825 C11.7284656,15.9688889 11.962963,16.0239153 12.2948148,16.0239153 C12.4514286,16.0239153 12.6266667,15.9959788 12.8247619,15.9417989 C13.021164,15.887619 13.1633862,15.8393651 13.2531217,15.7978836 L13.0812698,16.4979894 L13.0812698,16.4979894 Z M12.9678307,7.28910053 C12.6689947,7.56677249 12.3092063,7.70560847 11.8884656,7.70560847 C11.4685714,7.70560847 11.1062434,7.56677249 10.8048677,7.28910053 C10.5051852,7.01142857 10.3536508,6.67365079 10.3536508,6.27915344 C10.3536508,5.88550265 10.5060317,5.54687831 10.8048677,5.26666667 C11.1062434,4.98560847 11.4685714,4.84592593 11.8884656,4.84592593 C12.3092063,4.84592593 12.6698413,4.98560847 12.9678307,5.26666667 C13.2666667,5.54687831 13.4165079,5.88550265 13.4165079,6.27915344 C13.4165079,6.67449735 13.2666667,7.01142857 12.9678307,7.28910053 L12.9678307,7.28910053 Z" id="Shape"></path>
        </g>
    </g>
</svg>