<?xml version="1.0" encoding="UTF-8" standalone="no"?>
<svg width="22px" height="22px" viewBox="0 0 22 22" version="1.1" xmlns="http://www.w3.org/2000/svg" xmlns:xlink="http://www.w3.org/1999/xlink">
    <!-- Generator: Sketch 3.7.2 (28276) - http://www.bohemiancoding.com/sketch -->
    <title>list-item</title>
    <desc>Created with Sketch.</desc>
    <defs></defs>
    <g id="Icons" stroke="none" stroke-width="1" fill="none" fill-rule="evenodd">
        <g id="list-item" fill="#AEB1B5">
            <path d="M15.6229679,10.0160571 L8.98394287,3.38691177 C8.73944802,3.12893492 8.43414154,3 8.06741709,3 C7.70069264,3 7.39538616,3.12907759 7.15089131,3.38691177 L6.37699644,4.15074864 C6.12576059,4.40194882 6.00014267,4.70729097 6.00014267,5.06709609 C6.00014267,5.42008888 6.12572492,5.72906903 6.37699644,5.9937512 L11.3258505,10.9326186 L6.37678244,15.8816509 C6.12561792,16.1328511 6,16.4381933 6,16.798034 C6,17.1509912 6.12558226,17.4600783 6.37678244,17.7246535 L7.15074864,18.4883834 C7.40194882,18.7395835 7.70757631,18.8651658 8.06727442,18.8651658 C8.42711521,18.8651658 8.73267136,18.7395835 8.98380021,18.4883834 L15.6229679,11.859238 C15.8742751,11.5944845 16,11.2855757 16,10.9325829 C16.0000357,10.5727778 15.8742751,10.2672573 15.6229679,10.0160571 L15.6229679,10.0160571 Z" id="Shape"></path>
        </g>
    </g>
</svg>