<?xml version="1.0" encoding="UTF-8" standalone="no"?>
<svg width="22px" height="22px" viewBox="0 0 22 22" version="1.1" xmlns="http://www.w3.org/2000/svg" xmlns:xlink="http://www.w3.org/1999/xlink">
    <!-- Generator: Sketch 3.7.2 (28276) - http://www.bohemiancoding.com/sketch -->
    <title>magnify</title>
    <desc>Created with Sketch.</desc>
    <defs></defs>
    <g id="Icons" stroke="none" stroke-width="1" fill="none" fill-rule="evenodd">
        <g id="magnify">
            <g id="Group" transform="translate(1.000000, 1.000000)">
                <path d="M11.7306604,2.95084906 C10.5578302,1.7779717 8.99849057,1.13207547 7.33981132,1.13207547 C5.68122642,1.13207547 4.12193396,1.77792453 2.94915094,2.95075472 C0.528113208,5.37179245 0.528113208,9.31122642 2.94915094,11.7323585 C4.12193396,12.9051415 5.68132075,13.5510849 7.33990566,13.5510849 C8.99849057,13.5510849 10.5578774,12.9051887 11.7306604,11.7323585 C14.1516981,9.31122642 14.1516981,5.37183962 11.7306604,2.95084906 L11.7306604,2.95084906 Z M11.1087736,11.1104717 C10.1020755,12.1171698 8.76363208,12.6716981 7.33990566,12.6716981 C5.91617925,12.6716981 4.57768868,12.1171698 3.57103774,11.1104717 C2.56433962,10.1037264 2.00990566,8.76523585 2.00990566,7.34150943 C2.00990566,5.91783019 2.56433962,4.57929245 3.57103774,3.57264151 C4.57773585,2.56589623 5.91617925,2.01146226 7.33990566,2.01146226 C8.76363208,2.01146226 10.1021226,2.56589623 11.1087736,3.57264151 C13.1870283,5.65080189 13.1870283,9.03221698 11.1087736,11.1104717 L11.1087736,11.1104717 Z" id="Shape"></path>
                <path d="M10.3082547,4.37306604 C9.51537736,3.58014151 8.46117925,3.14353774 7.33985849,3.14353774 C6.21853774,3.14353774 5.16433962,3.58018868 4.37146226,4.37306604 C3.57858491,5.16599057 3.14193396,6.22018868 3.14193396,7.34150943 C3.14193396,8.46283019 3.57863208,9.5170283 4.37146226,10.3099528 C5.16433962,11.1029245 6.21853774,11.5396226 7.33985849,11.5396226 C8.46117925,11.5396226 9.51537736,11.1028774 10.3082547,10.3099528 C11.9450943,8.67316038 11.9450943,6.00985849 10.3082547,4.37306604 L10.3082547,4.37306604 Z M9.03051887,7.88410377 L7.83542453,7.88410377 L7.83542453,9.07919811 C7.83542453,9.39183962 7.58207547,9.64523585 7.26938679,9.64523585 C6.95679245,9.64523585 6.70334906,9.39183962 6.70334906,9.07919811 L6.70334906,7.88410377 L5.50825472,7.88410377 C5.19566038,7.88410377 4.94221698,7.63066038 4.94221698,7.31806604 C4.94221698,7.0054717 5.19566038,6.7520283 5.50825472,6.7520283 L6.70334906,6.7520283 L6.70334906,5.55698113 C6.70334906,5.24433962 6.95679245,4.9909434 7.26938679,4.9909434 C7.58207547,4.9909434 7.83542453,5.24433962 7.83542453,5.55698113 L7.83542453,6.7520283 L9.03051887,6.7520283 C9.34311321,6.7520283 9.5965566,7.0054717 9.5965566,7.31806604 C9.5965566,7.63066038 9.34311321,7.88410377 9.03051887,7.88410377 L9.03051887,7.88410377 Z" id="Shape"></path>
                <path d="M13.7157547,12.4968396 L13.1057547,11.8860377 C12.9289623,12.11 12.737783,12.3262264 12.5311321,12.5328302 C12.3239151,12.7400472 12.1063208,12.9329717 11.8798585,13.1118868 L12.4439623,13.6743868 L13.7157547,12.4968396 L13.7157547,12.4968396 Z" id="Shape"></path>
                <path d="M18.6036321,17.3911321 L14.5162736,13.2983491 L13.2463679,14.4742453 L17.3883019,18.6040094 C17.3926415,18.6078774 17.3967925,18.6117453 17.4009434,18.6157547 C17.735283,18.9360849 18.2736792,18.9302358 18.6010849,18.6027358 C18.9284906,18.2753302 18.9342925,17.7368396 18.6140566,17.4023113 C18.6105189,17.3985849 18.6070283,17.3948585 18.6036321,17.3911321 L18.6036321,17.3911321 Z" id="Shape" fill="#D3D6DB"></path>
                <path d="M11.1087736,3.57259434 C10.1020755,2.56584906 8.76363208,2.01141509 7.33990566,2.01141509 C5.91617925,2.01141509 4.57768868,2.56584906 3.57103774,3.57259434 C2.56433962,4.57929245 2.00990566,5.91783019 2.00990566,7.34146226 C2.00990566,8.76523585 2.56433962,10.1037264 3.57103774,11.1104245 C4.57773585,12.1171226 5.91617925,12.6716509 7.33990566,12.6716509 C8.76363208,12.6716509 10.1021226,12.1171226 11.1087736,11.1104245 C13.1870283,9.03221698 13.1870283,5.65080189 11.1087736,3.57259434 L11.1087736,3.57259434 Z M10.3082547,10.3099057 C9.51537736,11.1028774 8.46117925,11.5395755 7.33985849,11.5395755 C6.21853774,11.5395755 5.16433962,11.1028302 4.37146226,10.3099057 C3.57858491,9.51698113 3.14193396,8.46283019 3.14193396,7.34146226 C3.14193396,6.22018868 3.57863208,5.1659434 4.37146226,4.37301887 C5.16433962,3.58009434 6.21853774,3.14349057 7.33985849,3.14349057 C8.46117925,3.14349057 9.51537736,3.58014151 10.3082547,4.37301887 C11.9450943,6.00985849 11.9450943,8.67316038 10.3082547,10.3099057 L10.3082547,10.3099057 Z" id="Shape" fill="#AEB1B5"></path>
                <path d="M19.4539623,16.6429245 C19.4443868,16.6317925 19.434434,16.6209434 19.4239151,16.6104717 L13.7474057,10.9265094 C15.3098113,8.13132075 14.9045283,4.52377358 12.5311321,2.15028302 C11.1445283,0.763679245 9.30084906,0 7.33981132,0 C5.37882075,0 3.53523585,0.763584906 2.14863208,2.15018868 C-0.713820755,5.01268868 -0.713820755,9.67033019 2.14863208,12.532783 C3.53523585,13.9193868 5.37882075,14.6831132 7.33990566,14.6831132 C8.61415094,14.6831132 9.83872642,14.3603774 10.920566,13.7540566 L16.6091509,19.4258019 C16.6199528,19.4365566 16.6310849,19.4467453 16.6425,19.4564623 C17.0212264,19.8071226 17.5075943,19.9817925 17.9938208,19.9817925 C18.5051415,19.9817453 19.0163679,19.7883962 19.4015566,19.4031604 C20.1532075,18.6515566 20.1740566,17.4201887 19.4539623,16.6429245 L19.4539623,16.6429245 Z M18.6010377,18.6027358 C18.2736321,18.9302358 17.7352358,18.9360849 17.4008962,18.6157547 C17.3967453,18.6117453 17.3925943,18.6078774 17.3882547,18.6040094 L13.2463208,14.4742453 L14.5162264,13.2983491 L18.6035849,17.3911321 C18.6069811,17.3948585 18.6104717,17.3985849 18.6140094,17.4022642 C18.9342453,17.7368396 18.9284434,18.275283 18.6010377,18.6027358 L18.6010377,18.6027358 Z M7.33990566,13.5510377 C5.68132075,13.5510377 4.12193396,12.9051415 2.94915094,11.7323113 C0.528113208,9.31117925 0.528113208,5.37174528 2.94915094,2.95070755 C4.12193396,1.77792453 5.68122642,1.13207547 7.33981132,1.13207547 C8.99849057,1.13207547 10.5578774,1.7779717 11.7306604,2.95084906 C14.1516981,5.37183962 14.1516981,9.31127358 11.7306604,11.7323585 C10.5578302,12.9051415 8.99849057,13.5510377 7.33990566,13.5510377 L7.33990566,13.5510377 Z M12.5311321,12.532783 C12.737783,12.3261792 12.9289623,12.1099528 13.1057547,11.8859906 L13.7157547,12.4967925 L12.4440094,13.6743396 L11.8799057,13.1118396 C12.1063679,12.9329717 12.3239623,12.74 12.5311321,12.532783 L12.5311321,12.532783 Z" id="Shape" fill="#AEB1B5"></path>
                <path d="M9.03051887,6.7520283 L7.83542453,6.7520283 L7.83542453,5.55698113 C7.83542453,5.24433962 7.58207547,4.9909434 7.26938679,4.9909434 C6.95679245,4.9909434 6.70334906,5.24433962 6.70334906,5.55698113 L6.70334906,6.7520283 L5.50825472,6.7520283 C5.19566038,6.7520283 4.94221698,7.0054717 4.94221698,7.31806604 C4.94221698,7.63066038 5.19566038,7.88410377 5.50825472,7.88410377 L6.70334906,7.88410377 L6.70334906,9.07919811 C6.70334906,9.39183962 6.95679245,9.64523585 7.26938679,9.64523585 C7.58207547,9.64523585 7.83542453,9.39183962 7.83542453,9.07919811 L7.83542453,7.88410377 L9.03051887,7.88410377 C9.34311321,7.88410377 9.5965566,7.63066038 9.5965566,7.31806604 C9.5965566,7.0054717 9.34311321,6.7520283 9.03051887,6.7520283 L9.03051887,6.7520283 Z" id="Shape" fill="#AEB1B5"></path>
            </g>
        </g>
    </g>
</svg>