<?xml version="1.0" encoding="UTF-8" standalone="no"?>
<svg width="34px" height="46px" viewBox="0 0 34 46" version="1.1" xmlns="http://www.w3.org/2000/svg" xmlns:xlink="http://www.w3.org/1999/xlink">
    <!-- Generator: Sketch 3.7.2 (28276) - http://www.bohemiancoding.com/sketch -->
    <title>next</title>
    <desc>Created with Sketch.</desc>
    <defs></defs>
    <g id="Icons" stroke="none" stroke-width="1" fill="none" fill-rule="evenodd">
        <g id="next" fill="#FFFFFF">
            <path d="M29.9443101,20.6449599 L11.35504,2.08335295 C10.6704545,1.36101778 9.81559631,1 8.78876786,1 C7.76193941,1 6.90708125,1.36141725 6.22249566,2.08335295 L4.05559003,4.2220962 C3.35212966,4.92545671 3.00039947,5.78041473 3.00039947,6.78786906 C3.00039947,7.77624886 3.35202979,8.64139328 4.05559003,9.38250336 L17.9123813,23.211332 L4.05499083,37.0686226 C3.35173019,37.7719831 3,38.6269411 3,39.6344953 C3,40.6227753 3.35163032,41.4882193 4.05499083,42.2290298 L6.2220962,44.3674734 C6.92545671,45.0708339 7.78121366,45.4224642 8.78836839,45.4224642 C9.79592258,45.4224642 10.6514798,45.0708339 11.3546406,44.3674734 L29.9443101,25.8058664 C30.6479702,25.0645566 31,24.1996119 31,23.2112321 C31.0000998,22.2037778 30.6479702,21.3483204 29.9443101,20.6449599 L29.9443101,20.6449599 Z" id="Shape"></path>
        </g>
    </g>
</svg>