<?xml version="1.0" encoding="UTF-8" standalone="no"?>
<svg width="22px" height="22px" viewBox="0 0 22 22" version="1.1" xmlns="http://www.w3.org/2000/svg" xmlns:xlink="http://www.w3.org/1999/xlink">
    <!-- Generator: Sketch 3.7.2 (28276) - http://www.bohemiancoding.com/sketch -->
    <title>phone--white</title>
    <desc>Created with Sketch.</desc>
    <defs></defs>
    <g id="Icons" stroke="none" stroke-width="1" fill="none" fill-rule="evenodd">
        <g id="phone" fill="#FFFFFF">
            <path d="M21.3638256,17.0681907 C21.4069969,17.3989359 21.3062051,17.6865098 21.061873,17.9309124 L18.1933235,20.7777881 C18.0639153,20.921575 17.8950009,21.0438997 17.6865098,21.1444448 C17.4780188,21.2451309 17.2731576,21.309835 17.0719264,21.3385572 C17.0575477,21.3385572 17.0143059,21.3422576 16.9423772,21.3494469 C16.8705894,21.356601 16.7771279,21.3602662 16.6620983,21.3602662 C16.3888327,21.3602662 15.9466526,21.3135354 15.3355581,21.2200387 C14.7244636,21.1265419 13.9768067,20.8964476 13.0925875,20.5298614 C12.2081569,20.1632046 11.2052782,19.6131491 10.0837753,18.8799062 C8.96227238,18.1466985 7.76880552,17.1401194 6.50348043,15.8603804 C5.49697184,14.8682505 4.66300758,13.9192567 4.00158765,13.0134342 C3.34016772,12.1075412 2.80815603,11.2699823 2.4055526,10.5007222 C2.00291392,9.73146203 1.70096134,9.03409537 1.49965962,8.40862217 C1.2983579,7.78314897 1.16176031,7.24394794 1.08986684,6.79101908 C1.01797337,6.33809021 0.989215979,5.98221753 1.00359467,5.72340103 C1.01797337,5.46458454 1.02516271,5.3207976 1.02516271,5.29204021 C1.0539201,5.09073849 1.11862423,4.8858421 1.21927509,4.67735103 C1.31992595,4.46885997 1.44214485,4.29991031 1.58593179,4.17050206 L4.45448127,1.30195258 C4.65578299,1.10065086 4.8858421,1 5.14465859,1 C5.33158162,1 5.4969366,1.0539201 5.64072354,1.16176031 C5.78451048,1.26960052 5.90672938,1.40260344 6.00738024,1.56076907 L8.31516066,5.93908145 C8.4445689,6.16914055 8.48051564,6.4207677 8.42300086,6.69396289 C8.36548609,6.96715808 8.24326719,7.19721719 8.05634416,7.38414021 L6.99951014,8.44097423 C6.97075275,8.46973162 6.94559004,8.51646238 6.924022,8.5811665 C6.90245396,8.64587062 6.89166993,8.69979073 6.89166993,8.74292681 C6.94918471,9.04487939 7.07859296,9.38996805 7.27989468,9.77819279 C7.45243901,10.1232814 7.71844485,10.5438583 8.0779122,11.0399232 C8.43737956,11.5359881 8.9478232,12.107506 9.60924313,12.7545472 C10.2562844,13.4160377 10.8314321,13.9300055 11.3346864,14.2967327 C11.837835,14.6632484 12.2585528,14.9329546 12.5964521,15.105499 C12.9343514,15.2780433 13.1931679,15.3822888 13.3728663,15.4181298 L13.6423964,15.4720852 C13.6711537,15.4720852 13.7179902,15.4612659 13.7826239,15.4397331 C13.847328,15.4181298 13.8940588,15.3930024 13.9228514,15.3642097 L15.1521945,14.1132634 C15.411152,13.8832395 15.7129636,13.7682099 16.0580875,13.7682099 C16.3025957,13.7682099 16.4966024,13.8113108 16.6403893,13.8976182 L16.6619221,13.8976182 L20.8245189,16.3563749 C21.1265772,16.5434389 21.3062756,16.7806168 21.3638256,17.0681907 L21.3638256,17.0681907 Z" id="Shape"></path>
        </g>
    </g>
</svg>