<?xml version="1.0" encoding="UTF-8" standalone="no"?>
<svg width="18px" height="18px" viewBox="0 0 18 18" version="1.1" xmlns="http://www.w3.org/2000/svg" xmlns:xlink="http://www.w3.org/1999/xlink">
    <!-- Generator: Sketch 3.7.2 (28276) - http://www.bohemiancoding.com/sketch -->
    <title>quote--before</title>
    <desc>Created with Sketch.</desc>
    <defs></defs>
    <g id="Icons" stroke="none" stroke-width="1" fill="none" fill-rule="evenodd" fill-opacity="0.150000006">
        <g id="quote--before" fill="#333333">
            <path d="M6.44329897,8.72852234 C7.46965003,9.38831945 7.98281787,10.2771995 7.98281787,11.395189 C7.98281787,12.5131786 7.65292426,13.3928948 6.99312715,14.0343643 C6.33333003,14.6758337 5.50859601,14.9965636 4.51890034,14.9965636 C3.52920467,14.9965636 2.69530694,14.6849974 2.01718213,14.0618557 C1.33905732,13.438714 1,12.6231436 1,11.6151203 C1,10.6070969 1.32989361,9.62657979 1.98969072,8.67353952 L5.23367698,4 L8.58762887,4 L6.44329897,8.72852234 Z M14.8556701,8.72852234 C15.8820212,9.38831945 16.395189,10.2771995 16.395189,11.395189 C16.395189,12.5131786 16.0652954,13.3928948 15.4054983,14.0343643 C14.7457012,14.6758337 13.9209671,14.9965636 12.9312715,14.9965636 C11.9415758,14.9965636 11.1076781,14.6849974 10.4295533,14.0618557 C9.75142845,13.438714 9.41237113,12.6231436 9.41237113,11.6151203 C9.41237113,10.6070969 9.74226474,9.62657979 10.4020619,8.67353952 L13.6460481,4 L17,4 L14.8556701,8.72852234 Z" id="“"></path>
        </g>
    </g>
</svg>