<?xml version="1.0" encoding="UTF-8" standalone="no"?>
<svg width="22px" height="22px" viewBox="0 0 22 22" version="1.1" xmlns="http://www.w3.org/2000/svg" xmlns:xlink="http://www.w3.org/1999/xlink">
    <!-- Generator: Sketch 3.8.2 (29753) - http://www.bohemiancoding.com/sketch -->
    <title>icon--grabber</title>
    <desc>Created with Sketch.</desc>
    <defs></defs>
    <g id="Icons" stroke="none" stroke-width="1" fill="none" fill-rule="evenodd">
        <g id="icon" fill="#DC4128">
            <path d="M18.6671594,12.5431881 C18.6671594,12.5431881 15.9309106,10.5730684 15.8299092,10.3939105 C15.5660089,9.92548611 15.0275575,8.39863049 15.0275575,8.39863049 C14.9652484,8.27159405 14.7984391,8.16771127 14.6569445,8.16771127 L13.1458334,8.16771127 C13.0043388,8.16771127 12.8885704,8.05194294 12.8885704,7.91044832 L12.8885704,7.54919968 C12.8885704,7.40770506 12.7728021,7.29193673 12.6313075,7.29193673 L12.1282555,7.29193673 C11.9867609,7.29193673 11.8709925,7.1761684 11.8709925,7.03467378 L11.8709925,4.25726295 C11.8709925,4.11576833 11.7552242,4 11.6137296,4 L10.3005051,4 C10.1590105,4 10.0432422,4.11576833 10.0432422,4.25726295 L10.0432422,7.03462232 C10.0432422,7.17611695 9.92747385,7.29188528 9.78597923,7.29188528 L9.28292726,7.29188528 C9.14143263,7.29188528 9.0256643,7.4076536 9.0256643,7.54914823 L9.0256643,7.91039686 C9.0256643,8.05189149 8.90989598,8.16765982 8.76840135,8.16765982 L7.25734168,8.16765982 C7.11584706,8.16765982 6.94908921,8.27159405 6.88672867,8.39857904 C6.88672867,8.39857904 6.32651287,9.91385783 6.08432553,10.393859 C6.0133724,10.5344275 3.24712679,12.5431366 3.24712679,12.5431366 C3.11118905,12.6449099 3,12.8670822 3,13.0368757 L3,17.2290269 C3,17.3988205 3.11679738,17.6130176 3.25947541,17.7050149 L4.39421084,18.5857288 C4.53688887,18.6777261 4.76734502,18.6805045 4.88244447,18.5654051 C5.24425908,18.2035905 4.46603866,17.3500434 4.27787653,17.1107889 C4.17291325,16.9773209 4.08173926,16.7611171 4.11472037,16.5946165 L4.6465858,13.9072992 C4.67956691,13.7407471 4.8075295,13.5091076 4.93101571,13.392516 L7.65177724,10.8241571 C7.65177724,10.8241571 7.83911612,10.6247783 8.17355796,10.6247783 L13.8290723,10.6247783 C14.0863353,10.6247783 14.243986,10.8066117 14.243986,10.8066117 L16.9832705,13.392516 C17.1067567,13.5091076 17.2347193,13.7407471 17.2677004,13.9072992 L17.7995658,16.5946165 C17.8325469,16.7611171 17.7413215,16.9773209 17.6364097,17.1107889 C17.4481961,17.3500434 16.7155626,18.2266412 17.0317903,18.5654051 C17.1428764,18.6844149 17.3815135,18.6838489 17.5200239,18.5857288 C17.8130464,18.3781176 18.6548108,17.7050149 18.6548108,17.7050149 C18.7975403,17.6130176 18.9142347,17.3988205 18.9142347,17.2290269 L18.9142347,13.0368757 C18.9142347,12.8671336 18.8030457,12.6449613 18.6671594,12.5431881 L18.6671594,12.5431881 Z" id="Shape"></path>
        </g>
    </g>
</svg>