<?xml version="1.0" encoding="UTF-8" standalone="no"?>
<svg width="640px" height="78px" viewBox="0 0 640 78" version="1.1" xmlns="http://www.w3.org/2000/svg" xmlns:xlink="http://www.w3.org/1999/xlink">
    <!-- Generator: Sketch 3.7.1 (28215) - http://www.bohemiancoding.com/sketch -->
    <title>Logo - Condensed</title>
    <desc>Created with Sketch.</desc>
    <defs></defs>
    <g id="Logos" stroke="none" stroke-width="1" fill="none" fill-rule="evenodd">
        <g id="Logo---Condensed" fill="#CACACA">
            <path d="M44.8805,65.2675 L40.038,54.018 L18.2095,54.018 L13.367,65.2675 L1,65.2675 L23.499,13.192 L34.7485,13.192 L57.2475,65.2675 L44.8805,65.2675 Z M29.161,28.688 L22.605,43.8115 L35.6425,43.8115 L29.161,28.688 Z M103.065,20.00875 C108.031691,24.5532727 110.515,30.8732929 110.515,38.969 C110.515,47.0647071 108.093774,53.4716431 103.25125,58.19 C98.4087258,62.9083569 91.020883,65.2675 81.0875,65.2675 L63.282,65.2675 L63.282,13.192 L81.6835,13.192 C90.9712131,13.192 98.0983085,15.4642273 103.065,20.00875 L103.065,20.00875 Z M94.53475,50.9635 C97.3905976,48.2814866 98.8185,44.3826922 98.8185,39.267 C98.8185,34.1513078 97.3905976,30.2152638 94.53475,27.45875 C91.6789024,24.7022362 87.2958629,23.324 81.3855,23.324 L74.904,23.324 L74.904,54.9865 L82.2795,54.9865 C87.5938599,54.9865 91.6789024,53.6455134 94.53475,50.9635 L94.53475,50.9635 Z M160.3555,20.00875 C165.322192,24.5532727 167.8055,30.8732929 167.8055,38.969 C167.8055,47.0647071 165.384274,53.4716431 160.54175,58.19 C155.699226,62.9083569 148.311383,65.2675 138.378,65.2675 L120.5725,65.2675 L120.5725,13.192 L138.974,13.192 C148.261713,13.192 155.388809,15.4642273 160.3555,20.00875 L160.3555,20.00875 Z M151.82525,50.9635 C154.681098,48.2814866 156.109,44.3826922 156.109,39.267 C156.109,34.1513078 154.681098,30.2152638 151.82525,27.45875 C148.969402,24.7022362 144.586363,23.324 138.676,23.324 L132.1945,23.324 L132.1945,54.9865 L139.57,54.9865 C144.88436,54.9865 148.969402,53.6455134 151.82525,50.9635 L151.82525,50.9635 Z M197.531,65.2675 L197.531,13.192 L209.153,13.192 L209.153,54.912 L231.354,54.912 L231.354,65.2675 L197.531,65.2675 Z M273.819,27.049 C270.838985,23.7709836 267.176105,22.132 262.83025,22.132 C258.484395,22.132 254.821515,23.7709836 251.8415,27.049 C248.861485,30.3270164 247.3715,34.2878934 247.3715,38.93175 C247.3715,43.5756066 248.861485,47.5240671 251.8415,50.77725 C254.821515,54.0304329 258.484395,55.657 262.83025,55.657 C267.176105,55.657 270.838985,54.0304329 273.819,50.77725 C276.799015,47.5240671 278.289,43.5756066 278.289,38.93175 C278.289,34.2878934 276.799015,30.3270164 273.819,27.049 L273.819,27.049 Z M262.793,65.789 C255.094628,65.789 248.613193,63.2187757 243.3485,58.07825 C238.083807,52.9377243 235.4515,46.5432049 235.4515,38.8945 C235.4515,31.2457951 238.083807,24.8512757 243.3485,19.71075 C248.613193,14.5702243 255.094628,12 262.793,12 C270.491372,12 276.972807,14.5702243 282.2375,19.71075 C287.502193,24.8512757 290.1345,31.2457951 290.1345,38.8945 C290.1345,46.5432049 287.502193,52.9377243 282.2375,58.07825 C276.972807,63.2187757 270.491372,65.789 262.793,65.789 L262.793,65.789 Z M333.7915,38.7455 L345.488,38.7455 L345.488,57.2215 C340.322641,62.9828621 333.170712,65.8635 324.032,65.8635 C316.383295,65.8635 309.963943,63.3305253 304.77375,58.2645 C299.583557,53.1984747 296.9885,46.8039553 296.9885,39.08075 C296.9885,31.3575447 299.633224,24.9133592 304.92275,19.748 C310.212276,14.5826408 316.594379,12 324.06925,12 C331.544121,12 338.037972,14.4584754 343.551,19.3755 L337.5165,28.092 C335.182155,26.0556565 333.034093,24.6525872 331.07225,23.88275 C329.110407,23.1129128 326.987178,22.728 324.7025,22.728 C320.282145,22.728 316.557182,24.2304016 313.5275,27.23525 C310.497818,30.2400984 308.983,34.2009754 308.983,39.118 C308.983,44.0350246 310.435735,47.9710686 313.34125,50.92625 C316.246765,53.8814314 319.71098,55.359 323.734,55.359 C327.75702,55.359 331.109487,54.5891744 333.7915,53.0495 L333.7915,38.7455 Z M391.231,27.049 C388.250985,23.7709836 384.588105,22.132 380.24225,22.132 C375.896395,22.132 372.233515,23.7709836 369.2535,27.049 C366.273485,30.3270164 364.7835,34.2878934 364.7835,38.93175 C364.7835,43.5756066 366.273485,47.5240671 369.2535,50.77725 C372.233515,54.0304329 375.896395,55.657 380.24225,55.657 C384.588105,55.657 388.250985,54.0304329 391.231,50.77725 C394.211015,47.5240671 395.701,43.5756066 395.701,38.93175 C395.701,34.2878934 394.211015,30.3270164 391.231,27.049 L391.231,27.049 Z M380.205,65.789 C372.506628,65.789 366.025193,63.2187757 360.7605,58.07825 C355.495807,52.9377243 352.8635,46.5432049 352.8635,38.8945 C352.8635,31.2457951 355.495807,24.8512757 360.7605,19.71075 C366.025193,14.5702243 372.506628,12 380.205,12 C387.903372,12 394.384807,14.5702243 399.6495,19.71075 C404.914193,24.8512757 407.5465,31.2457951 407.5465,38.8945 C407.5465,46.5432049 404.914193,52.9377243 399.6495,58.07825 C394.384807,63.2187757 387.903372,65.789 380.205,65.789 L380.205,65.789 Z M469.3815,13.192 L481.0035,13.192 L481.0035,65.2675 L469.3815,65.2675 L469.3815,44.78 L448.6705,44.78 L448.6705,65.2675 L437.0485,65.2675 L437.0485,13.192 L448.6705,13.192 L448.6705,34.946 L469.3815,34.946 L469.3815,13.192 Z M531.3655,13.192 L531.3655,23.5475 L505.4395,23.5475 L505.4395,34.2755 L528.758,34.2755 L528.758,44.184 L505.4395,44.184 L505.4395,54.9865 L532.185,54.9865 L532.185,65.2675 L493.8175,65.2675 L493.8175,13.192 L531.3655,13.192 Z M584.782,30.476 C584.782,38.8200417 581.4792,44.2088212 574.8735,46.6425 L588.06,65.2675 L573.756,65.2675 L562.2085,48.654 L554.1625,48.654 L554.1625,65.2675 L542.5405,65.2675 L542.5405,13.192 L562.283,13.192 C570.378707,13.192 576.152399,14.5578197 579.60425,17.2895 C583.056101,20.0211803 584.782,24.4166364 584.782,30.476 L584.782,30.476 Z M570.776,36.6595 C572.216341,35.3681602 572.9365,33.3194307 572.9365,30.51325 C572.9365,27.7070693 572.191507,25.7825052 570.7015,24.7395 C569.211493,23.6964948 566.604019,23.175 562.879,23.175 L554.1625,23.175 L554.1625,38.5965 L562.6555,38.5965 C566.628853,38.5965 569.335659,37.9508398 570.776,36.6595 L570.776,36.6595 Z M634.25,13.192 L634.25,23.5475 L608.324,23.5475 L608.324,34.2755 L631.6425,34.2755 L631.6425,44.184 L608.324,44.184 L608.324,54.9865 L635.0695,54.9865 L635.0695,65.2675 L596.702,65.2675 L596.702,13.192 L634.25,13.192 Z" id="ADD-LOGO-HERE"></path>
        </g>
    </g>
</svg>