<?xml version="1.0" encoding="UTF-8" standalone="no"?>
<svg width="36px" height="36px" viewBox="0 0 36 36" version="1.1" xmlns="http://www.w3.org/2000/svg" xmlns:xlink="http://www.w3.org/1999/xlink">
    <!-- Generator: Sketch 3.8.2 (29753) - http://www.bohemiancoding.com/sketch -->
    <title>quote--after</title>
    <desc>Created with Sketch.</desc>
    <defs></defs>
    <g id="Icons" stroke="none" stroke-width="1" fill="none" fill-rule="evenodd">
        <g id="quote--after" fill="#DC4128">
            <path d="M12.5670103,16.04811 C14.7480063,17.4501788 15.838488,19.3390488 15.838488,21.7147766 C15.838488,24.0905044 15.1374641,25.9599015 13.7353952,27.3230241 C12.3333263,28.6861466 10.5807665,29.3676976 8.47766323,29.3676976 C6.37455993,29.3676976 4.60252725,28.7056195 3.16151203,27.3814433 C1.7204968,26.0572671 1,24.3241802 1,22.1821306 C1,20.0400809 1.70102392,17.9564821 3.10309278,15.9312715 L9.99656357,6 L17.1237113,6 L12.5670103,16.04811 Z M30.443299,16.04811 C32.624295,17.4501788 33.7147766,19.3390488 33.7147766,21.7147766 C33.7147766,24.0905044 33.0137527,25.9599015 31.6116838,27.3230241 C30.209615,28.6861466 28.4570552,29.3676976 26.3539519,29.3676976 C24.2508486,29.3676976 22.4788159,28.7056195 21.0378007,27.3814433 C19.5967855,26.0572671 18.8762887,24.3241802 18.8762887,22.1821306 C18.8762887,20.0400809 19.5773126,17.9564821 20.9793814,15.9312715 L27.8728522,6 L35,6 L30.443299,16.04811 Z" id="“" transform="translate(18.000000, 17.683849) scale(-1, -1) translate(-18.000000, -17.683849) "></path>
        </g>
    </g>
</svg>